<?xml version="1.0" encoding="utf-8"?>
<!-- Generator: Adobe Illustrator 16.0.0, SVG Export Plug-In . SVG Version: 6.00 Build 0)  -->
<!DOCTYPE svg PUBLIC "-//W3C//DTD SVG 1.1//EN" "http://www.w3.org/Graphics/SVG/1.1/DTD/svg11.dtd">
<svg version="1.1" id="Layer_1" xmlns="http://www.w3.org/2000/svg" xmlns:xlink="http://www.w3.org/1999/xlink" x="0px" y="0px"
	 width="928px" height="274px" viewBox="0 0 928 274" enable-background="new 0 0 928 274" xml:space="preserve">
<polygon fill="#ED1E79" points="549.065,208 683.898,154.004 820.417,208 "/>
<g>
	<path fill="#F4DD0C" d="M88.24,43.391h29.549c7.496,0.07,13.126,1.953,16.892,5.648c3.8,3.731,5.701,8.665,5.701,14.8
		c0.069,3.138-0.68,6.137-2.249,8.996c-0.802,1.359-1.953,2.65-3.452,3.87c-1.5,1.291-3.347,2.458-5.543,3.504v0.209
		c4.148,1.081,7.287,3.26,9.414,6.537c1.987,3.382,2.981,7.061,2.981,11.035c-0.07,6.589-2.127,11.802-6.171,15.637
		c-4.01,4.01-9.014,6.014-15.01,6.014H88.24V43.391z M99.798,53.694v21.808h16.683c4.218,0,7.322-1.098,9.309-3.295
		c2.021-2.021,3.033-4.567,3.033-7.635c0-3.068-1.012-5.666-3.033-7.792c-1.987-1.987-5.091-3.016-9.309-3.085H99.798z
		 M99.798,85.805v22.907h17.781c4.289-0.07,7.426-1.237,9.414-3.504c1.988-2.231,2.981-4.881,2.981-7.95
		c0-3.138-0.994-5.822-2.981-8.054c-1.987-2.197-5.125-3.329-9.414-3.399H99.798z"/>
	<path fill="#F4DD0C" d="M164.271,43.391h11.558v65.321h37.132v10.93h-48.69V43.391z"/>
	<path fill="#F4DD0C" d="M233.138,43.391h11.558v49.161c0.069,5.195,1.569,9.152,4.498,11.872c2.858,2.859,6.538,4.289,11.035,4.289
		s8.211-1.429,11.14-4.289c2.858-2.72,4.323-6.676,4.393-11.872V43.391h11.558v50.416c-0.14,8.02-2.737,14.382-7.792,19.089
		c-5.091,4.847-11.523,7.304-19.298,7.374c-7.636-0.07-14.016-2.527-19.141-7.374c-5.23-4.707-7.88-11.069-7.949-19.089V43.391z"/>
	<path fill="#F4DD0C" d="M312.725,43.391h48.69v10.931h-37.132v21.756h31.693v10.25h-31.693v22.384h37.132v10.93h-48.69V43.391z"/>
</g>
<g>
	<path fill="#666666" d="M417.104,107.907c9.705-0.136,14.625-3.605,14.763-10.405c0.068-5.57-3.178-8.919-9.739-10.047
		c-3.008-0.41-6.305-0.872-9.893-1.384c-6.425-1.059-11.312-3.434-14.66-7.125c-3.452-3.793-5.177-8.406-5.177-13.84
		c0-6.527,2.169-11.79,6.51-15.788c4.203-3.963,10.166-5.979,17.89-6.048c9.294,0.205,17.377,2.786,24.246,7.74l-6.305,9.329
		c-5.604-3.691-11.772-5.604-18.504-5.741c-3.486,0-6.391,0.872-8.714,2.614c-2.427,1.812-3.674,4.511-3.742,8.099
		c0,2.153,0.837,4.101,2.512,5.844c1.674,1.777,4.357,3.007,8.048,3.69c2.05,0.342,4.852,0.735,8.406,1.179
		c7.005,0.957,12.182,3.469,15.532,7.535c3.314,3.999,4.972,8.646,4.972,13.943c-0.376,14.284-9.124,21.529-26.245,21.734
		c-11.072,0-20.589-3.417-28.552-10.252l7.433-8.509C401.829,105.362,408.902,107.839,417.104,107.907z"/>
	<path fill="#666666" d="M464.303,43.885h11.328v48.184c0.068,5.092,1.539,8.97,4.408,11.636c2.803,2.803,6.408,4.203,10.816,4.203
		s8.049-1.4,10.918-4.203c2.803-2.666,4.238-6.543,4.307-11.636V43.885h11.328v49.414c-0.137,7.86-2.684,14.097-7.639,18.71
		c-4.988,4.75-11.293,7.159-18.914,7.228c-7.484-0.069-13.736-2.478-18.761-7.228c-5.126-4.613-7.723-10.85-7.792-18.71V43.885z"/>
	<path fill="#666666" d="M542.31,43.885h10.662l21.427,48.696l21.016-48.696h10.714v74.736H594.8V72.026h-0.257l-15.634,35.881
		h-9.432l-15.634-35.881h-0.205v46.595H542.31V43.885z"/>
	<path fill="#666666" d="M632.361,43.885h10.662l21.427,48.696l21.016-48.696h10.714v74.736h-11.328V72.026h-0.257l-15.634,35.881
		h-9.432l-15.634-35.881h-0.205v46.595h-11.329V43.885z"/>
	<path fill="#666666" d="M722.414,43.885h47.723v10.713h-36.394v21.324h31.062v10.046h-31.062v21.939h36.394v10.713h-47.723V43.885z
		"/>
	<path fill="#666666" d="M791.296,43.885h29.167c6.219,0,11.294,1.64,15.224,4.921c4.75,3.725,7.228,9.039,7.433,15.941
		c-0.137,10.149-4.955,17.053-14.455,20.709l17.326,33.165h-13.481L817.08,86.686h-14.455v31.935h-11.329V43.885z M802.625,76.639
		h17.12c4.237-0.068,7.415-1.298,9.534-3.69c2.084-2.221,3.127-4.955,3.127-8.202c-0.069-3.896-1.316-6.715-3.742-8.458
		c-1.914-1.538-4.682-2.307-8.304-2.307h-17.735V76.639z"/>
</g>
<polygon fill="#F4DD0C" points="580.303,241.949 792.696,125.659 709.18,236.936 "/>
<g>
	<g>
		<path fill="#666666" d="M112.327,167.185h26.552v15.224c-0.137,7.484-2.7,13.756-7.689,18.812
			c-5.023,5.023-11.346,7.604-18.966,7.74c-5.878-0.137-10.782-1.571-14.711-4.306c-3.998-2.631-6.903-5.673-8.714-9.124
			c-0.547-1.128-1.042-2.204-1.486-3.229c-0.41-1.059-0.752-2.392-1.025-3.998c-0.512-3.007-0.769-8.782-0.769-17.326
			c0-8.68,0.256-14.489,0.769-17.428c0.546-2.939,1.384-5.313,2.512-7.125c1.811-3.451,4.716-6.526,8.714-9.227
			c3.929-2.733,8.833-4.134,14.711-4.203c7.21,0.069,13.088,2.204,17.633,6.407c4.544,4.238,7.415,9.483,8.611,15.737h-11.995
			c-0.923-3.007-2.598-5.57-5.023-7.689c-2.529-2.016-5.605-3.058-9.227-3.127c-2.666,0.069-4.956,0.599-6.869,1.589
			c-1.948,1.025-3.52,2.307-4.716,3.844c-1.47,1.607-2.444,3.674-2.922,6.203c-0.547,2.665-0.82,7.672-0.82,15.019
			c0,7.348,0.273,12.32,0.82,14.917c0.478,2.597,1.452,4.698,2.922,6.305c1.196,1.538,2.768,2.785,4.716,3.742
			c1.913,1.127,4.203,1.691,6.869,1.691c4.408,0,8.048-1.504,10.918-4.511c2.871-2.871,4.339-6.646,4.409-11.329v-3.896h-15.224
			V167.185z"/>
		<path fill="#666666" d="M200.892,191.635h-28.346l-5.741,16.711H154.81l27.167-74.736h9.483l27.167,74.736h-11.943
			L200.892,191.635z M197.663,181.588l-10.815-32.652h-0.205l-10.816,32.652H197.663z"/>
		<path fill="#666666" d="M237.123,133.61h11.328v64.023h36.394v10.713h-47.722V133.61z"/>
		<path fill="#666666" d="M306.004,133.61h11.328v64.023h36.394v10.713h-47.722V133.61z"/>
		<path fill="#666666" d="M374.887,133.61h47.722v10.713h-36.394v21.324h31.063v10.046h-31.063v21.939h36.394v10.713h-47.722V133.61
			z"/>
		<path fill="#666666" d="M443.769,133.61h29.167c6.219,0,11.294,1.64,15.224,4.921c4.75,3.725,7.228,9.039,7.433,15.941
			c-0.137,10.149-4.955,17.053-14.455,20.709l17.326,33.164h-13.481l-15.429-31.935h-14.455v31.935h-11.328V133.61z
			 M455.097,166.364h17.121c4.237-0.068,7.415-1.298,9.534-3.69c2.084-2.221,3.127-4.955,3.127-8.202
			c-0.069-3.896-1.316-6.715-3.742-8.458c-1.914-1.538-4.682-2.307-8.304-2.307h-17.736V166.364z"/>
		<path fill="#666666" d="M528.183,177.59l-22.503-43.98h11.994l15.84,33.165l15.839-33.165h11.994l-22.502,43.98v30.756h-10.662
			V177.59z"/>
	</g>
</g>
</svg>
